<?xml version="1.0" encoding="UTF-8" standalone="no"?>
<!-- Created with Inkscape (http://www.inkscape.org/) -->

<svg
   xmlns:dc="http://purl.org/dc/elements/1.1/"
   xmlns:cc="http://creativecommons.org/ns#"
   xmlns:rdf="http://www.w3.org/1999/02/22-rdf-syntax-ns#"
   xmlns:svg="http://www.w3.org/2000/svg"
   xmlns="http://www.w3.org/2000/svg"
   xmlns:sodipodi="http://sodipodi.sourceforge.net/DTD/sodipodi-0.dtd"
   xmlns:inkscape="http://www.inkscape.org/namespaces/inkscape"
   width="302.76868mm"
   height="93.872955mm"
   viewBox="0 0 302.76868 93.872957"
   version="1.1"
   id="svg8"
   sodipodi:docname="logo.svg"
   inkscape:version="0.92.4 (5da689c313, 2019-01-14)">
  <defs
     id="defs2">
    <clipPath
       id="clipPath1287"
       clipPathUnits="userSpaceOnUse">
      <path
         inkscape:connector-curvature="0"
         id="path1285"
         d="M 0,595.28 H 841.89 V 0 H 0 Z" />
    </clipPath>
    <clipPath
       id="clipPath1287-8"
       clipPathUnits="userSpaceOnUse">
      <path
         inkscape:connector-curvature="0"
         id="path1285-8"
         d="M 0,595.28 H 841.89 V 0 H 0 Z" />
    </clipPath>
    <clipPath
       id="clipPath104"
       clipPathUnits="userSpaceOnUse">
      <path
         inkscape:connector-curvature="0"
         id="path102"
         d="M 0,595.28 H 841.89 V 0 H 0 Z" />
    </clipPath>
  </defs>
  <sodipodi:namedview
     id="base"
     pagecolor="#ffffff"
     bordercolor="#666666"
     borderopacity="1.0"
     inkscape:pageopacity="0.0"
     inkscape:pageshadow="2"
     inkscape:zoom="0.35"
     inkscape:cx="949.12547"
     inkscape:cy="223.30903"
     inkscape:document-units="mm"
     inkscape:current-layer="layer1"
     showgrid="false"
     inkscape:window-width="1920"
     inkscape:window-height="1057"
     inkscape:window-x="-8"
     inkscape:window-y="-8"
     inkscape:window-maximized="1"
     fit-margin-top="0"
     fit-margin-left="0"
     fit-margin-right="0"
     fit-margin-bottom="0" />
  <metadata
     id="metadata5">
    <rdf:RDF>
      <cc:Work
         rdf:about="">
        <dc:format>image/svg+xml</dc:format>
        <dc:type
           rdf:resource="http://purl.org/dc/dcmitype/StillImage" />
        <dc:title></dc:title>
      </cc:Work>
    </rdf:RDF>
  </metadata>
  <g
     inkscape:label="Capa 1"
     inkscape:groupmode="layer"
     id="layer1"
     transform="translate(486.20319,-207.13356)">
    <text
       xml:space="preserve"
       style="font-style:normal;font-weight:normal;font-size:27.37373161px;line-height:1.25;font-family:sans-serif;letter-spacing:0px;word-spacing:0px;fill:#000000;fill-opacity:1;stroke:none;stroke-width:0.68434328"
       x="-64.426422"
       y="73.143677"
       id="text918"><tspan
         sodipodi:role="line"
         id="tspan916"
         x="-64.426422"
         y="97.363014"
         style="stroke-width:0.68434328" /></text>
    <rect
       style="opacity:1;fill:none;fill-opacity:1;stroke:none;stroke-width:1.0332731;stroke-miterlimit:4;stroke-dasharray:none;stroke-opacity:1"
       id="rect1410"
       width="302.76868"
       height="93.872955"
       x="-486.20319"
       y="207.13356"
       inkscape:export-xdpi="95.699997"
       inkscape:export-ydpi="95.699997" />
    <g
       id="g1408"
       transform="matrix(0.78607018,0,0,0.78607018,-368.44643,200.59497)"
       inkscape:export-xdpi="95.699997"
       inkscape:export-ydpi="95.699997">
      <path
         style="fill:#f59e3d;fill-opacity:1;stroke-width:0.55915177"
         inkscape:connector-curvature="0"
         d="m 370.80804,129.76339 -16.10358,-7.71574 -82.47544,82.47545 -4.61972,28.43902 28.43903,-4.61971 90.86272,-90.86273 z"
         id="path842"
         transform="matrix(0.26458333,0,0,0.26458333,-182.63809,25.159526)" />
      <path
         style="fill:#ea5e26;fill-opacity:1;stroke-width:0.55915177"
         inkscape:connector-curvature="0"
         d="M 296.04833,228.34241 386.91105,137.47968 370.80804,129.76339 267.6093,232.96212 Z"
         id="path844"
         transform="matrix(0.26458333,0,0,0.26458333,-182.63809,25.159526)" />
      <path
         style="fill:#797a7f;fill-opacity:0.82745098;stroke-width:0.55915177"
         inkscape:connector-curvature="0"
         d="m 505.74198,-5.1705583 c -19.74364,-19.7436487 -47.0023,-31.9722987 -77.0623,-31.9722987 -60.12,0 -109.03459,48.914597 -109.03459,109.034601 0,30.059996 12.22865,57.318646 31.9723,77.062286 19.74365,19.74366 47.00229,31.97231 77.06229,31.97231 60.12,0 109.03461,-48.9146 109.03461,-109.034596 0,-30.060002 -12.22866,-57.318653 -31.97231,-77.0623023 z"
         id="path846"
         transform="matrix(0.26458333,0,0,0.26458333,-182.63809,25.159526)" />
      <path
         style="fill:#797a7e;fill-opacity:0.94901961;stroke-width:0.55915177"
         inkscape:connector-curvature="0"
         d="m 537.71429,71.891744 c 0,-30.060002 -12.22866,-57.318653 -31.97231,-77.0623023 L 351.61739,148.95403 c 19.74365,19.74366 47.00229,31.97231 77.06229,31.97231 60.12,0 109.03461,-48.9146 109.03461,-109.034596 z"
         id="path848"
         transform="matrix(0.26458333,0,0,0.26458333,-182.63809,25.159526)" />
      <path
         style="fill:#ffffff;stroke-width:0.55915177"
         inkscape:connector-curvature="0"
         d="M 493.88685,6.6845777 C 477.18107,-10.021199 454.11606,-20.368304 428.67968,-20.368304 c -50.87218,0 -92.26004,41.387856 -92.26004,92.260048 0,25.436376 10.34711,48.501376 27.05287,65.207156 16.70579,16.70578 39.7708,27.05288 65.20717,27.05288 50.87219,0 92.26005,-41.38785 92.26005,-92.260036 0,-25.436379 -10.34711,-48.501388 -27.05288,-65.2071663 z"
         id="path850"
         transform="matrix(0.26458333,0,0,0.26458333,-182.63809,25.159526)" />
      <path
         style="fill:#797a7f;fill-opacity:1;stroke-width:0.55915177"
         inkscape:connector-curvature="0"
         d="m 284.13895,216.43247 -11.90993,-11.90937 -20.80045,20.96819 11.82663,11.82494 11.82494,11.82663 20.96819,-20.80045 z"
         id="path858"
         transform="matrix(0.26458333,0,0,0.26458333,-182.63809,25.159526)" />
      <path
         style="fill:#3d4566;stroke-width:0.55915177"
         inkscape:connector-curvature="0"
         d="m 296.04833,228.34241 -11.90938,-11.90994 -20.88375,20.88376 11.82494,11.82663 z"
         id="path860"
         transform="matrix(0.26458333,0,0,0.26458333,-182.63809,25.159526)" />
      <rect
         y="275.99997"
         x="133.14282"
         height="20"
         width="442.85715"
         id="rect1258"
         style="opacity:1;fill:#f7b400;fill-opacity:1;stroke:none;stroke-width:5.02000809;stroke-miterlimit:4;stroke-dasharray:none;stroke-opacity:1"
         transform="matrix(0.26458333,0,0,0.26458333,-182.63809,25.159526)" />
      <text
         id="text930"
         y="43.706688"
         x="-25.240854"
         style="font-style:normal;font-variant:normal;font-weight:normal;font-stretch:normal;font-size:20.46816635px;line-height:1.25;font-family:Arimo;-inkscape-font-specification:'Arimo, Normal';font-variant-ligatures:normal;font-variant-caps:normal;font-variant-numeric:normal;font-feature-settings:normal;text-align:start;letter-spacing:0px;word-spacing:0px;writing-mode:lr-tb;text-anchor:start;fill:#000000;fill-opacity:1;stroke:none;stroke-width:0.51170748"
         xml:space="preserve"><tspan
           id="tspan934"
           style="font-style:normal;font-variant:normal;font-weight:normal;font-stretch:normal;font-size:20.46816635px;font-family:Arimo;-inkscape-font-specification:'Arimo, Normal';font-variant-ligatures:normal;font-variant-caps:normal;font-variant-numeric:normal;font-feature-settings:normal;text-align:start;writing-mode:lr-tb;text-anchor:start;stroke-width:0.51170748"
           y="43.706688"
           x="-25.240854"
           sodipodi:role="line">RECURSUS BIOLOGICOS</tspan><tspan
           id="tspan944"
           style="font-style:normal;font-variant:normal;font-weight:normal;font-stretch:normal;font-size:20.46816635px;font-family:Arimo;-inkscape-font-specification:'Arimo, Normal';font-variant-ligatures:normal;font-variant-caps:normal;font-variant-numeric:normal;font-feature-settings:normal;text-align:start;writing-mode:lr-tb;text-anchor:start;stroke-width:0.51170748"
           y="69.291893"
           x="-25.240854"
           sodipodi:role="line">Y CONOCIMIENTOS</tspan></text>
      <text
         id="text940"
         y="103.45409"
         x="-27.009659"
         style="font-style:normal;font-variant:normal;font-weight:bold;font-stretch:normal;font-size:31.77822304px;line-height:1.25;font-family:Arimo;-inkscape-font-specification:'Arimo, Bold';font-variant-ligatures:normal;font-variant-caps:normal;font-variant-numeric:normal;font-feature-settings:normal;text-align:start;letter-spacing:0px;word-spacing:0px;writing-mode:lr-tb;text-anchor:start;fill:#000000;fill-opacity:1;stroke:none;stroke-width:0.7944541"
         xml:space="preserve"><tspan
           style="font-style:normal;font-variant:normal;font-weight:bold;font-stretch:normal;font-size:31.77822304px;font-family:Arimo;-inkscape-font-specification:'Arimo, Bold';font-variant-ligatures:normal;font-variant-caps:normal;font-variant-numeric:normal;font-feature-settings:normal;text-align:start;writing-mode:lr-tb;text-anchor:start;stroke-width:0.7944541"
           y="103.45409"
           x="-27.009659"
           id="tspan938"
           sodipodi:role="line">TRADICIONALES</tspan></text>
    </g>
    <g
       id="g882"
       transform="matrix(0.10110678,0,0,0.10110678,-419.57808,163.43517)"
       inkscape:export-xdpi="95.699997"
       inkscape:export-ydpi="95.699997">
      <g
         transform="matrix(1.3333333,0,0,-1.3333333,-411.10334,1236.6077)"
         inkscape:label="indecopi-nuevo-logo"
         id="g1279">
        <g
           id="g1281">
          <g
             clip-path="url(#clipPath1287)"
             id="g1283">
            <g
               id="g1383"
               transform="translate(-233.57144,-105)">
              <g
                 transform="translate(342.85716,203.57144)"
                 id="g1374">
                <g
                   transform="translate(124.9297,363.2803)"
                   id="g1321">
                  <path
                     inkscape:connector-curvature="0"
                     id="path1323"
                     style="fill:#c10348;fill-opacity:1;fill-rule:evenodd;stroke:none"
                     d="m 0,0 c 9.405,0 17.03,-7.625 17.03,-17.029 0,-6.974 -4.193,-12.968 -10.194,-15.601 6.001,-2.633 10.194,-8.627 10.194,-15.6 v -55.59 c 0,-15.75 11.26,-28.519 25.151,-28.519 1.225,0 2.428,0.102 3.606,0.293 -6.205,-6.251 -15.333,-9.602 -26.124,-9.602 -18.991,0 -34.63,14.686 -36.692,33.577 v 59.841 c 0,6.973 4.192,12.967 10.194,15.6 -6.002,2.633 -10.194,8.627 -10.194,15.601 C -17.029,-7.625 -9.405,0 0,0" />
                </g>
                <g
                   transform="translate(171.1885,385.6846)"
                   id="g1325">
                  <path
                     inkscape:connector-curvature="0"
                     id="path1327"
                     style="fill:#ea7500;fill-opacity:1;fill-rule:evenodd;stroke:none"
                     d="m 0,0 c 9.405,0 17.029,-7.624 17.029,-17.029 0,-7.14 -4.394,-13.253 -10.625,-15.784 6.231,-2.53 10.625,-8.643 10.625,-15.782 v -79.922 c 0,-9.405 -7.624,-17.03 -17.029,-17.03 -9.405,0 -17.029,7.625 -17.029,17.03 v 79.922 c 0,7.139 4.394,13.252 10.625,15.782 -6.231,2.531 -10.625,8.644 -10.625,15.784 C -17.029,-7.624 -9.405,0 0,0" />
                </g>
                <g
                   transform="translate(217.4912,363.2803)"
                   id="g1329">
                  <path
                     inkscape:connector-curvature="0"
                     id="path1331"
                     style="fill:#f7b400;fill-opacity:1;fill-rule:evenodd;stroke:none"
                     d="m 0,0 c -9.405,0 -17.029,-7.625 -17.029,-17.029 0,-6.974 4.192,-12.968 10.193,-15.601 -6.001,-2.633 -10.193,-8.627 -10.193,-15.6 v -55.59 c -1.404,-17.346 -7.094,-31.345 -22.68,-37.621 34.824,-5.782 54.102,14.007 56.738,39 v 54.211 c 0,6.973 -4.192,12.967 -10.193,15.6 6.001,2.633 10.193,8.627 10.193,15.601 C 17.029,-7.625 9.405,0 0,0" />
                </g>
              </g>
            </g>
          </g>
        </g>
      </g>
    </g>
    <rect
       inkscape:export-ydpi="95.699997"
       inkscape:export-xdpi="95.699997"
       y="207.13356"
       x="-486.20319"
       height="93.872955"
       width="302.76868"
       id="rect38"
       style="opacity:1;fill:none;fill-opacity:1;stroke:none;stroke-width:1.0332731;stroke-miterlimit:4;stroke-dasharray:none;stroke-opacity:1" />
    <g
       inkscape:export-ydpi="95.699997"
       inkscape:export-xdpi="95.699997"
       transform="matrix(0.78607018,0,0,0.78607018,-368.44643,200.59497)"
       id="g66">
      <path
         transform="matrix(0.26458333,0,0,0.26458333,-182.63809,25.159526)"
         id="path40"
         d="m 370.80804,129.76339 -16.10358,-7.71574 -82.47544,82.47545 -4.61972,28.43902 28.43903,-4.61971 90.86272,-90.86273 z"
         inkscape:connector-curvature="0"
         style="fill:#f59e3d;fill-opacity:1;stroke-width:0.55915177" />
      <path
         transform="matrix(0.26458333,0,0,0.26458333,-182.63809,25.159526)"
         id="path42"
         d="M 296.04833,228.34241 386.91105,137.47968 370.80804,129.76339 267.6093,232.96212 Z"
         inkscape:connector-curvature="0"
         style="fill:#ea5e26;fill-opacity:1;stroke-width:0.55915177" />
      <path
         transform="matrix(0.26458333,0,0,0.26458333,-182.63809,25.159526)"
         id="path44"
         d="m 505.74198,-5.1705583 c -19.74364,-19.7436487 -47.0023,-31.9722987 -77.0623,-31.9722987 -60.12,0 -109.03459,48.914597 -109.03459,109.034601 0,30.059996 12.22865,57.318646 31.9723,77.062286 19.74365,19.74366 47.00229,31.97231 77.06229,31.97231 60.12,0 109.03461,-48.9146 109.03461,-109.034596 0,-30.060002 -12.22866,-57.318653 -31.97231,-77.0623023 z"
         inkscape:connector-curvature="0"
         style="fill:#797a7f;fill-opacity:0.82745098;stroke-width:0.55915177" />
      <path
         transform="matrix(0.26458333,0,0,0.26458333,-182.63809,25.159526)"
         id="path46"
         d="m 537.71429,71.891744 c 0,-30.060002 -12.22866,-57.318653 -31.97231,-77.0623023 L 351.61739,148.95403 c 19.74365,19.74366 47.00229,31.97231 77.06229,31.97231 60.12,0 109.03461,-48.9146 109.03461,-109.034596 z"
         inkscape:connector-curvature="0"
         style="fill:#797a7e;fill-opacity:0.94901961;stroke-width:0.55915177" />
      <path
         transform="matrix(0.26458333,0,0,0.26458333,-182.63809,25.159526)"
         id="path48"
         d="M 493.88685,6.6845777 C 477.18107,-10.021199 454.11606,-20.368304 428.67968,-20.368304 c -50.87218,0 -92.26004,41.387856 -92.26004,92.260048 0,25.436376 10.34711,48.501376 27.05287,65.207156 16.70579,16.70578 39.7708,27.05288 65.20717,27.05288 50.87219,0 92.26005,-41.38785 92.26005,-92.260036 0,-25.436379 -10.34711,-48.501388 -27.05288,-65.2071663 z"
         inkscape:connector-curvature="0"
         style="fill:#ffffff;stroke-width:0.55915177" />
      <path
         transform="matrix(0.26458333,0,0,0.26458333,-182.63809,25.159526)"
         id="path50"
         d="m 284.13895,216.43247 -11.90993,-11.90937 -20.80045,20.96819 11.82663,11.82494 11.82494,11.82663 20.96819,-20.80045 z"
         inkscape:connector-curvature="0"
         style="fill:#797a7f;fill-opacity:1;stroke-width:0.55915177" />
      <path
         transform="matrix(0.26458333,0,0,0.26458333,-182.63809,25.159526)"
         id="path52"
         d="m 296.04833,228.34241 -11.90938,-11.90994 -20.88375,20.88376 11.82494,11.82663 z"
         inkscape:connector-curvature="0"
         style="fill:#3d4566;stroke-width:0.55915177" />
      <rect
         transform="matrix(0.26458333,0,0,0.26458333,-182.63809,25.159526)"
         style="opacity:1;fill:#f7b400;fill-opacity:1;stroke:none;stroke-width:5.02000809;stroke-miterlimit:4;stroke-dasharray:none;stroke-opacity:1"
         id="rect54"
         width="442.85715"
         height="20"
         x="133.14282"
         y="275.99997" />
      <text
         xml:space="preserve"
         style="font-style:normal;font-variant:normal;font-weight:normal;font-stretch:normal;font-size:20.46816635px;line-height:1.25;font-family:Arimo;-inkscape-font-specification:'Arimo, Normal';font-variant-ligatures:normal;font-variant-caps:normal;font-variant-numeric:normal;font-feature-settings:normal;text-align:start;letter-spacing:0px;word-spacing:0px;writing-mode:lr-tb;text-anchor:start;fill:#283950;fill-opacity:1;stroke:none;stroke-width:0.51170748;"
         x="-25.240854"
         y="43.706688"
         id="text60"><tspan
           sodipodi:role="line"
           x="-25.240854"
           y="43.706688"
           style="font-style:normal;font-variant:normal;font-weight:normal;font-stretch:normal;font-size:20.46816635px;font-family:Arimo;-inkscape-font-specification:'Arimo, Normal';font-variant-ligatures:normal;font-variant-caps:normal;font-variant-numeric:normal;font-feature-settings:normal;text-align:start;writing-mode:lr-tb;text-anchor:start;stroke-width:0.51170748;fill:#283950;fill-opacity:1;"
           id="tspan56">RECURSUS BIOLOGICOS</tspan><tspan
           sodipodi:role="line"
           x="-25.240854"
           y="69.291893"
           style="font-style:normal;font-variant:normal;font-weight:normal;font-stretch:normal;font-size:20.46816635px;font-family:Arimo;-inkscape-font-specification:'Arimo, Normal';font-variant-ligatures:normal;font-variant-caps:normal;font-variant-numeric:normal;font-feature-settings:normal;text-align:start;writing-mode:lr-tb;text-anchor:start;stroke-width:0.51170748;fill:#283950;fill-opacity:1;"
           id="tspan58">Y CONOCIMIENTOS</tspan></text>
      <text
         xml:space="preserve"
         style="font-style:normal;font-variant:normal;font-weight:bold;font-stretch:normal;font-size:31.77822304px;line-height:1.25;font-family:Arimo;-inkscape-font-specification:'Arimo, Bold';font-variant-ligatures:normal;font-variant-caps:normal;font-variant-numeric:normal;font-feature-settings:normal;text-align:start;letter-spacing:0px;word-spacing:0px;writing-mode:lr-tb;text-anchor:start;fill:#283950;fill-opacity:1;stroke:none;stroke-width:0.7944541;"
         x="-27.009659"
         y="103.45409"
         id="text64"><tspan
           sodipodi:role="line"
           id="tspan62"
           x="-27.009659"
           y="103.45409"
           style="font-style:normal;font-variant:normal;font-weight:bold;font-stretch:normal;font-size:31.77822304px;font-family:Arimo;-inkscape-font-specification:'Arimo, Bold';font-variant-ligatures:normal;font-variant-caps:normal;font-variant-numeric:normal;font-feature-settings:normal;text-align:start;writing-mode:lr-tb;text-anchor:start;stroke-width:0.7944541;fill:#283950;fill-opacity:1;">TRADICIONALES</tspan></text>
    </g>
    <g
       inkscape:export-ydpi="95.699997"
       inkscape:export-xdpi="95.699997"
       transform="matrix(0.10110678,0,0,0.10110678,-419.57808,163.43517)"
       id="g90">
      <g
         id="g88"
         inkscape:label="indecopi-nuevo-logo"
         transform="matrix(1.3333333,0,0,-1.3333333,-411.10334,1236.6077)">
        <g
           id="g86">
          <g
             id="g84"
             clip-path="url(#clipPath1287)">
            <g
               transform="translate(-233.57144,-105)"
               id="g82">
              <g
                 id="g80"
                 transform="translate(342.85716,203.57144)">
                <g
                   id="g70"
                   transform="translate(124.9297,363.2803)">
                  <path
                     d="m 0,0 c 9.405,0 17.03,-7.625 17.03,-17.029 0,-6.974 -4.193,-12.968 -10.194,-15.601 6.001,-2.633 10.194,-8.627 10.194,-15.6 v -55.59 c 0,-15.75 11.26,-28.519 25.151,-28.519 1.225,0 2.428,0.102 3.606,0.293 -6.205,-6.251 -15.333,-9.602 -26.124,-9.602 -18.991,0 -34.63,14.686 -36.692,33.577 v 59.841 c 0,6.973 4.192,12.967 10.194,15.6 -6.002,2.633 -10.194,8.627 -10.194,15.601 C -17.029,-7.625 -9.405,0 0,0"
                     style="fill:#c10348;fill-opacity:1;fill-rule:evenodd;stroke:none"
                     id="path68"
                     inkscape:connector-curvature="0" />
                </g>
                <g
                   id="g74"
                   transform="translate(171.1885,385.6846)">
                  <path
                     d="m 0,0 c 9.405,0 17.029,-7.624 17.029,-17.029 0,-7.14 -4.394,-13.253 -10.625,-15.784 6.231,-2.53 10.625,-8.643 10.625,-15.782 v -79.922 c 0,-9.405 -7.624,-17.03 -17.029,-17.03 -9.405,0 -17.029,7.625 -17.029,17.03 v 79.922 c 0,7.139 4.394,13.252 10.625,15.782 -6.231,2.531 -10.625,8.644 -10.625,15.784 C -17.029,-7.624 -9.405,0 0,0"
                     style="fill:#ea7500;fill-opacity:1;fill-rule:evenodd;stroke:none"
                     id="path72"
                     inkscape:connector-curvature="0" />
                </g>
                <g
                   id="g78"
                   transform="translate(217.4912,363.2803)">
                  <path
                     d="m 0,0 c -9.405,0 -17.029,-7.625 -17.029,-17.029 0,-6.974 4.192,-12.968 10.193,-15.601 -6.001,-2.633 -10.193,-8.627 -10.193,-15.6 v -55.59 c -1.404,-17.346 -7.094,-31.345 -22.68,-37.621 34.824,-5.782 54.102,14.007 56.738,39 v 54.211 c 0,6.973 -4.192,12.967 -10.193,15.6 6.001,2.633 10.193,8.627 10.193,15.601 C 17.029,-7.625 9.405,0 0,0"
                     style="fill:#f7b400;fill-opacity:1;fill-rule:evenodd;stroke:none"
                     id="path76"
                     inkscape:connector-curvature="0" />
                </g>
              </g>
            </g>
          </g>
        </g>
      </g>
    </g>
  </g>
</svg>
