<?xml version="1.0" encoding="UTF-8" standalone="no"?>
<svg
   xmlns:dc="http://purl.org/dc/elements/1.1/"
   xmlns:cc="http://creativecommons.org/ns#"
   xmlns:rdf="http://www.w3.org/1999/02/22-rdf-syntax-ns#"
   xmlns:svg="http://www.w3.org/2000/svg"
   xmlns="http://www.w3.org/2000/svg"
   xmlns:sodipodi="http://sodipodi.sourceforge.net/DTD/sodipodi-0.dtd"
   xmlns:inkscape="http://www.inkscape.org/namespaces/inkscape"
   sodipodi:docname="search_advanced.svg"
   inkscape:version="1.0 (4035a4fb49, 2020-05-01)"
   id="svg8"
   version="1.1"
   viewBox="0 0 25.866598 25.866598"
   height="1.01837in"
   width="1.01837in">
  <defs
     id="defs2" />
  <sodipodi:namedview
     units="in"
     inkscape:document-rotation="0"
     fit-margin-bottom="0"
     fit-margin-right="0"
     fit-margin-left="0"
     fit-margin-top="0"
     inkscape:window-maximized="1"
     inkscape:window-y="-8"
     inkscape:window-x="-8"
     inkscape:window-height="1057"
     inkscape:window-width="1920"
     showgrid="false"
     inkscape:current-layer="layer1"
     inkscape:document-units="mm"
     inkscape:cy="60.538258"
     inkscape:cx="63.223673"
     inkscape:zoom="2.8"
     inkscape:pageshadow="2"
     inkscape:pageopacity="0.0"
     borderopacity="1.0"
     bordercolor="#666666"
     pagecolor="#ffffff"
     id="base" />
  <metadata
     id="metadata5">
    <rdf:RDF>
      <cc:Work
         rdf:about="">
        <dc:format>image/svg+xml</dc:format>
        <dc:type
           rdf:resource="http://purl.org/dc/dcmitype/StillImage" />
        <dc:title></dc:title>
      </cc:Work>
    </rdf:RDF>
  </metadata>
  <g
     transform="translate(337.91074,48.470234)"
     id="layer1"
     inkscape:groupmode="layer"
     inkscape:label="Capa 1">
    <rect
       y="-48.470234"
       x="-337.91074"
       height="25.8666"
       width="25.8666"
       id="rect877"
       style="opacity:1;fill:none;fill-opacity:1;stroke:none;stroke-width:0.190541;stroke-miterlimit:4;stroke-dasharray:none;stroke-opacity:1" />
    <g
       transform="matrix(0.03279085,0,0,0.03279085,-334.30069,-44.007967)"
       id="g114">
      <path
         inkscape:connector-curvature="0"
         style="fill:#fec9a3"
         d="M 507.661,503.322 V 399.907 c 0,-11.325 -5.528,-21.938 -14.805,-28.438 l -65.25,-45.681 c -4.374,-3.063 -9.589,-4.703 -14.935,-4.703 h -52.536 l 0.868,148.48 c 0.321,15.473 10.431,29.028 25.166,33.757 z"
         id="path29" />
      <path
         inkscape:connector-curvature="0"
         style="fill:#fabd91"
         d="m 455.593,503.322 h -60.746 c -19.17,0 -34.712,-15.542 -34.712,-34.712 v -34.712 h 60.746 z"
         id="path31" />
      <path
         inkscape:connector-curvature="0"
         style="fill:#88b337"
         d="m 229.966,60.746 c -5.979,0.009 -11.889,1.258 -17.356,3.662 V 0 H 56.407 C 27.648,0 4.339,23.309 4.339,52.068 v 156.203 h 64.408 c -9.633,-21.938 0.338,-47.538 22.285,-57.17 21.938,-9.633 47.538,0.338 57.17,22.285 4.886,11.116 4.886,23.778 0,34.894 h 64.408 v -64.408 c 21.938,9.633 47.538,-0.338 57.17,-22.285 9.632,-21.947 -0.338,-47.538 -22.285,-57.17 -5.519,-2.439 -11.489,-3.68 -17.529,-3.671 z"
         id="path33" />
      <path
         inkscape:connector-curvature="0"
         style="fill:#e8594a"
         d="M 420.881,52.068 C 420.881,23.309 397.572,0 368.814,0 H 212.61 v 64.408 c 21.938,-9.633 47.538,0.338 57.17,22.285 9.633,21.938 -0.338,47.538 -22.285,57.17 -11.116,4.886 -23.778,4.886 -34.894,0 v 64.408 h 64.408 c -9.633,21.938 0.338,47.538 22.285,57.17 21.938,9.633 47.538,-0.338 57.17,-22.285 4.886,-11.116 4.886,-23.778 0,-34.894 h 64.417 V 52.068 Z"
         id="path35" />
      <path
         inkscape:connector-curvature="0"
         style="fill:#d65245"
         d="M 420.881,57.023 C 371.278,126.03 281.73,165.228 212.61,186.325 v 21.947 h 64.408 c -9.633,21.938 0.338,47.538 22.285,57.17 21.938,9.633 47.538,-0.338 57.17,-22.285 4.886,-11.116 4.886,-23.778 0,-34.894 h 64.408 V 57.023 Z"
         id="path37" />
      <path
         inkscape:connector-curvature="0"
         style="fill:#fdb62f"
         d="m 195.254,277.695 c 5.979,0.009 11.889,1.258 17.356,3.662 v -73.086 h -64.408 c 9.633,-21.938 -0.338,-47.538 -22.285,-57.17 -21.947,-9.633 -47.538,0.338 -57.17,22.285 -4.886,11.116 -4.886,23.778 0,34.894 H 4.339 v 156.203 c 0,28.759 23.309,52.068 52.068,52.068 H 212.61 v -55.73 c -21.938,9.633 -47.538,-0.338 -57.17,-22.285 -9.633,-21.938 0.338,-47.538 22.285,-57.17 5.519,-2.439 11.489,-3.68 17.529,-3.671 z"
         id="path39" />
      <path
         inkscape:connector-curvature="0"
         style="fill:#ffa719"
         d="m 4.339,364.475 c 0,28.759 23.309,52.068 52.068,52.068 H 212.61 v -55.73 c -21.834,9.615 -47.33,-0.286 -56.945,-22.12 -2.23,-5.068 -3.471,-10.526 -3.645,-16.063 -46.523,20.749 -96.751,31.918 -147.682,32.846 v 8.999 z"
         id="path41" />
      <path
         inkscape:connector-curvature="0"
         style="fill:#4398d1"
         d="m 443.574,389.641 -54.906,-146.658 -60.303,22.71 c 16.809,17.122 16.549,44.631 -0.573,61.431 -17.122,16.801 -44.631,16.549 -61.431,-0.573 -8.556,-8.721 -13.052,-20.636 -12.375,-32.837 l -60.295,22.71 25.687,68.634 c -5.962,-0.338 -11.932,0.573 -17.529,2.673 -22.407,8.695 -33.514,33.905 -24.819,56.311 8.548,22.016 33.098,33.202 55.322,25.183 5.597,-2.109 10.7,-5.372 14.969,-9.563 L 266.9,512 413.141,456.921 c 26.953,-10.205 40.569,-40.301 30.433,-67.28 z"
         id="path43" />
      <path
         inkscape:connector-curvature="0"
         style="fill:#3e8fc9"
         d="m 415.258,314.012 c -59.878,89.557 -172.127,120.832 -237.872,131.601 9.225,21.947 34.495,32.256 56.441,23.031 5.025,-2.109 9.607,-5.163 13.494,-8.982 L 266.9,512 413.141,456.921 c 26.945,-10.205 40.552,-40.283 30.434,-67.254 z"
         id="path45" />
      <path
         inkscape:connector-curvature="0"
         style="fill:#80a834"
         d="m 229.966,60.746 c -5.979,0.009 -11.889,1.258 -17.356,3.662 V 51.816 C 147.63,111.633 59.592,144.67 4.339,160.768 v 47.503 h 64.408 c -9.633,-21.938 0.338,-47.538 22.285,-57.17 21.938,-9.633 47.538,0.338 57.17,22.285 4.886,11.116 4.886,23.778 0,34.894 h 64.408 v -64.408 c 21.938,9.633 47.538,-0.338 57.17,-22.285 9.632,-21.947 -0.338,-47.538 -22.285,-57.17 -5.519,-2.439 -11.489,-3.68 -17.529,-3.671 z"
         id="path47" />
      <path
         inkscape:connector-curvature="0"
         style="fill:#fec9a3"
         d="m 403.682,390.665 c -8.305,-8.47 -21.903,-8.609 -30.373,-0.304 -8.47,8.305 -8.609,21.903 -0.304,30.373 0.104,0.104 0.2,0.208 0.304,0.304 l 30.217,30.217 c 0,28.759 23.309,52.068 52.068,52.068 v 0 h 52.068 v -8.678 z"
         id="path49" />
      <g
         id="g51" />
      <g
         id="g53" />
      <g
         id="g55" />
      <g
         id="g57" />
      <g
         id="g59" />
      <g
         id="g61" />
      <g
         id="g63" />
      <g
         id="g65" />
      <g
         id="g67" />
      <g
         id="g69" />
      <g
         id="g71" />
      <g
         id="g73" />
      <g
         id="g75" />
      <g
         id="g77" />
      <g
         id="g79" />
    </g>
  </g>
</svg>
