<?xml version="1.0" encoding="UTF-8" standalone="no"?>
<svg
   xmlns:dc="http://purl.org/dc/elements/1.1/"
   xmlns:cc="http://creativecommons.org/ns#"
   xmlns:rdf="http://www.w3.org/1999/02/22-rdf-syntax-ns#"
   xmlns:svg="http://www.w3.org/2000/svg"
   xmlns="http://www.w3.org/2000/svg"
   xmlns:sodipodi="http://sodipodi.sourceforge.net/DTD/sodipodi-0.dtd"
   xmlns:inkscape="http://www.inkscape.org/namespaces/inkscape"
   sodipodi:docname="search_easy.svg"
   inkscape:version="1.0 (4035a4fb49, 2020-05-01)"
   id="svg8"
   version="1.1"
   viewBox="0 0 25.746874 25.746874"
   height="25.746874mm"
   width="25.746874mm">
  <defs
     id="defs2" />
  <sodipodi:namedview
     inkscape:document-rotation="0"
     fit-margin-bottom="0"
     fit-margin-right="0"
     fit-margin-left="0"
     fit-margin-top="0"
     inkscape:window-maximized="1"
     inkscape:window-y="-8"
     inkscape:window-x="-8"
     inkscape:window-height="1057"
     inkscape:window-width="1920"
     showgrid="false"
     inkscape:current-layer="layer1"
     inkscape:document-units="mm"
     inkscape:cy="7.7904077"
     inkscape:cx="92.83967"
     inkscape:zoom="1.979899"
     inkscape:pageshadow="2"
     inkscape:pageopacity="0.0"
     borderopacity="1.0"
     bordercolor="#666666"
     pagecolor="#ffffff"
     id="base" />
  <metadata
     id="metadata5">
    <rdf:RDF>
      <cc:Work
         rdf:about="">
        <dc:format>image/svg+xml</dc:format>
        <dc:type
           rdf:resource="http://purl.org/dc/dcmitype/StillImage" />
        <dc:title></dc:title>
      </cc:Work>
    </rdf:RDF>
  </metadata>
  <g
     transform="translate(337.91074,48.470234)"
     id="layer1"
     inkscape:groupmode="layer"
     inkscape:label="Capa 1">
    <rect
       y="-48.470234"
       x="-337.91074"
       height="25.746874"
       width="25.746874"
       id="rect877"
       style="opacity:1;fill:none;fill-opacity:1;stroke:none;stroke-width:0.189659;stroke-miterlimit:4;stroke-dasharray:none;stroke-opacity:1" />
    <g
       transform="matrix(0.0302819,0,0,0.0302819,-332.89771,-43.008844)"
       id="g849">
      <g
         id="g831">
        <circle
           style="fill:#97c9f9"
           cx="219.589"
           cy="84.803001"
           r="75.984001"
           id="circle815" />
        <path
           style="fill:#ffefe7"
           inkscape:connector-curvature="0"
           d="m 404.365,183.998 c -17.049,0 -30.87,13.821 -30.87,30.87 v -24.89 c 0,-17.049 -13.821,-30.87 -30.87,-30.87 -17.049,0 -30.87,13.821 -30.87,30.87 V 177.51 c 0,-17.049 -13.821,-30.87 -30.87,-30.87 -17.049,0 -30.87,13.821 -30.87,30.87 V 73.248 c 0,-17.049 -13.821,-30.87 -30.87,-30.87 -17.049,0 -30.87,13.821 -30.87,30.87 v 221.17 c 0,4.077 -5.007,6.029 -7.767,3.028 l -49.419,-53.744 c -11.534,-12.543 -30.83,-12.948 -42.879,-0.898 -11.698,11.698 -13.628,32.443 -4.289,46.098 L 162.88,404.35 c 13.252,19.377 33.398,32.968 56.327,38.001 1.86,0 3.368,1.508 3.368,3.368 v 52.09 c 0,3.483 2.823,6.306 6.306,6.306 h 180.283 c 3.483,0 6.306,-2.823 6.306,-6.306 v -45.602 c 0,-3.419 0.641,-6.807 1.889,-9.989 l 2.391,-6.096 c 9.855,-25.124 15.076,-51.813 15.448,-78.782 l 0.036,-31.962 v -110.51 c 0.001,-17.049 -13.82,-30.87 -30.869,-30.87 z"
           id="path817" />
        <path
           style="fill:#ffefe7"
           inkscape:connector-curvature="0"
           d="m 404.365,183.998 c -17.049,0 -30.87,13.821 -30.87,30.87 v -24.89 c 0,-17.049 -13.821,-30.87 -30.87,-30.87 -17.049,0 -30.87,13.821 -30.87,30.87 V 177.51 c 0,-17.049 -13.821,-30.87 -30.87,-30.87 -17.049,0 -30.87,13.821 -30.87,30.87 V 73.248 c 0,-17.049 -13.821,-30.87 -30.87,-30.87 -17.049,0 -30.87,13.821 -30.87,30.87 v 221.17 c 0,4.077 -5.007,6.029 -7.767,3.028 l -49.419,-53.744 c -11.534,-12.543 -30.83,-12.948 -42.879,-0.898 -11.698,11.698 -13.628,32.443 -4.289,46.098 L 162.88,404.35 c 13.252,19.377 33.398,32.968 56.327,38.001 1.86,0 3.368,1.508 3.368,3.368 v 52.09 c 0,3.483 2.823,6.306 6.306,6.306 h 180.283 c 3.483,0 6.306,-2.823 6.306,-6.306 v -45.602 c 0,-3.419 0.641,-6.807 1.889,-9.989 l 2.391,-6.096 c 9.855,-25.124 15.076,-51.813 15.448,-78.782 l 0.036,-31.962 v -110.51 c 0.001,-17.049 -13.82,-30.87 -30.869,-30.87 z"
           id="path819" />
        <path
           style="fill:#ffe0d1"
           inkscape:connector-curvature="0"
           d="m 188.277,294.145 c 12.239,0 22.161,-9.922 22.161,-22.161 V 71.778 c 0,-9.295 3.45,-17.696 9.04,-23.787 1.753,-1.907 3.716,-3.586 5.848,-4.994 -1.996,-0.406 -4.062,-0.619 -6.179,-0.619 -8.52,0 -16.24,3.46 -21.83,9.04 -5.59,5.59 -9.04,13.3 -9.04,21.83 z"
           id="path821" />
        <g
           id="XMLID_1_">
          <path
             style="fill:#ffe0d1"
             inkscape:connector-curvature="0"
             d="m 398.082,217.506 c 0,-13.808 9.076,-25.514 21.591,-29.453 -4.514,-2.583 -9.737,-4.055 -15.306,-4.055 -17.05,0 -30.87,13.82 -30.87,30.86 v 17.819 c 0,0.675 0.547,1.221 1.221,1.221 h 6.971 c 9.054,0.001 16.393,-7.338 16.393,-16.392 z"
             id="path823" />
        </g>
        <g
           id="XMLID_2_">
          <path
             style="fill:#ffe0d1"
             inkscape:connector-curvature="0"
             d="m 354.201,161.352 c -3.434,-1.395 -7.134,-2.175 -11.051,-2.24 -17.263,-0.289 -31.756,13.661 -31.392,31.507 v 47.658 c 12.825,0 23.222,-10.397 23.222,-23.222 v -25.078 c -0.001,-12.942 7.927,-24.036 19.221,-28.625 z"
             id="path826" />
        </g>
        <path
           style="fill:#ffe0d1"
           inkscape:connector-curvature="0"
           d="m 291.482,148.508 c -3.472,-1.272 -7.212,-1.933 -11.137,-1.866 -16.948,0.292 -30.327,14.145 -30.327,31.537 v 58.498 c 11.731,0 21.241,-9.51 21.241,-21.241 v -37.929 c -0.001,-13.316 8.407,-24.669 20.223,-28.999 z"
           id="path829" />
      </g>
      <path
         style="fill:#ffe0d1"
         inkscape:connector-curvature="0"
         d="m 242.69,441.675 c 0,-9.544 -5.398,-18.284 -13.959,-22.502 -14.795,-7.288 -37.181,-19.786 -45.741,-32.297 l -80.75,-118.06 c -3.83,-5.61 -5.69,-12.02 -5.69,-18.38 0,-4.728 1.027,-10.463 3.028,-14.783 -4.132,1.433 -8.028,3.812 -11.367,7.15 -11.698,11.698 -13.628,32.443 -4.289,46.098 l 78.959,115.448 c 13.252,19.377 33.398,32.968 56.327,38.001 1.86,0 3.368,1.508 3.368,3.368 v 52.09 c 0,3.483 2.823,6.306 6.306,6.306 h 13.808 z"
         id="path833" />
      <g
         id="g847">
        <path
           inkscape:connector-curvature="0"
           d="m 404.365,176.499 c -8.956,0 -17.199,3.093 -23.735,8.255 -2.558,-18.693 -18.621,-33.146 -38.005,-33.146 -10.28,0 -19.628,4.063 -26.524,10.669 -5.906,-13.601 -19.468,-23.136 -35.216,-23.136 -8.79,0 -16.893,2.978 -23.37,7.969 V 73.248 c 0,-21.157 -17.212,-38.37 -38.37,-38.37 -21.158,0 -38.37,17.213 -38.37,38.37 v 124.083 c 0,4.142 3.358,7.5 7.5,7.5 4.142,0 7.5,-3.358 7.5,-7.5 V 73.248 c 0,-12.886 10.484,-23.37 23.37,-23.37 12.886,0 23.37,10.484 23.37,23.37 v 168.21 c 0,4.142 3.358,7.5 7.5,7.5 4.142,0 7.5,-3.358 7.5,-7.5 V 177.51 c 0,-12.886 10.484,-23.37 23.37,-23.37 12.886,0 23.37,10.483 23.37,23.37 v 63.948 c 0,4.142 3.358,7.5 7.5,7.5 4.142,0 7.5,-3.358 7.5,-7.5 v -51.48 c 0,-12.886 10.483,-23.37 23.37,-23.37 12.887,0 23.37,10.484 23.37,23.37 v 51.48 c 0,4.142 3.358,7.5 7.5,7.5 4.142,0 7.5,-3.358 7.5,-7.5 v -26.59 c 0,-12.886 10.484,-23.37 23.37,-23.37 12.886,0 23.37,10.483 23.37,23.37 V 325.37 l -0.036,31.867 c -0.362,26.193 -5.385,51.812 -14.931,76.146 l -2.391,6.095 c -1.597,4.072 -2.407,8.354 -2.407,12.729 v 51.908 c 0,4.142 3.358,7.5 7.5,7.5 4.142,0 7.5,-3.358 7.5,-7.5 v -51.908 c 0,-2.492 0.461,-4.931 1.371,-7.25 l 2.391,-6.096 c 10.207,-26.02 15.579,-53.413 15.966,-81.512 l 0.036,-31.971 v -110.51 c 0.001,-21.157 -17.212,-38.369 -38.369,-38.369 z"
           id="path835" />
        <path
           inkscape:connector-curvature="0"
           d="m 220.816,435.026 c -21.146,-4.642 -39.523,-17.04 -51.744,-34.909 L 88.321,282.05 c -7.357,-10.758 -5.345,-25.15 4.681,-33.477 10.293,-8.55 25.453,-7.531 34.51,2.32 l 47.476,51.629 c 3.364,3.659 8.532,4.857 13.163,3.051 4.631,-1.806 7.624,-6.185 7.624,-11.156 v -65.124 c 0,-4.142 -3.358,-7.5 -7.5,-7.5 -4.142,0 -7.5,3.358 -7.5,7.5 v 57.362 L 138.554,240.739 C 124.083,225.003 99.865,223.373 83.417,237.034 67.399,250.337 64.184,273.33 75.939,290.517 l 80.75,118.066 c 13.898,20.321 34.556,34.63 58.385,40.504 v 55.026 c 0,4.142 3.358,7.5 7.5,7.5 4.142,0 7.5,-3.358 7.5,-7.5 v -57.576 c 10e-4,-5.492 -3.893,-10.333 -9.258,-11.511 z"
           id="path837" />
        <path
           inkscape:connector-curvature="0"
           d="m 288.073,83.484 c 0,11.023 -2.557,21.564 -7.6,31.33 -1.9,3.681 -0.458,8.205 3.223,10.105 1.101,0.568 2.276,0.837 3.435,0.837 2.716,0 5.338,-1.48 6.67,-4.06 6.152,-11.915 9.272,-24.771 9.272,-38.212 0,-18.279 -5.806,-35.642 -16.79,-50.211 -2.493,-3.307 -7.196,-3.967 -10.504,-1.474 -3.307,2.494 -3.967,7.196 -1.474,10.504 9.008,11.947 13.768,26.187 13.768,41.181 z"
           id="path839" />
        <path
           inkscape:connector-curvature="0"
           d="m 152.048,125.757 c 1.159,0 2.334,-0.27 3.435,-0.838 3.68,-1.9 5.123,-6.425 3.222,-10.105 -5.043,-9.765 -7.6,-20.306 -7.6,-31.33 0,-37.762 30.722,-68.484 68.484,-68.484 11.486,0 22.852,2.903 32.869,8.395 3.631,1.992 8.191,0.661 10.182,-2.971 1.992,-3.632 0.662,-8.19 -2.971,-10.182 C 247.448,3.542 233.589,0 219.589,0 c -46.034,0 -83.484,37.451 -83.484,83.484 0,13.442 3.12,26.298 9.273,38.212 1.332,2.581 3.954,4.061 6.67,4.061 z"
           id="path841" />
        <path
           inkscape:connector-curvature="0"
           d="m 110.045,142.959 c 1.079,0 2.175,-0.234 3.214,-0.728 3.741,-1.778 5.332,-6.252 3.554,-9.994 -7.27,-15.294 -10.955,-31.697 -10.955,-48.753 0,-17.056 3.686,-33.459 10.955,-48.753 1.778,-3.741 0.187,-8.215 -3.554,-9.994 -3.743,-1.779 -8.215,-0.187 -9.994,3.554 -8.233,17.322 -12.407,35.891 -12.407,55.192 0,19.301 4.174,37.871 12.407,55.192 1.285,2.703 3.975,4.284 6.78,4.284 z"
           id="path843" />
        <path
           inkscape:connector-curvature="0"
           d="m 325.92,142.231 c 1.039,0.494 2.135,0.728 3.214,0.728 2.805,0 5.495,-1.581 6.779,-4.283 8.233,-17.323 12.407,-35.892 12.407,-55.192 0,-19.3 -4.174,-37.869 -12.407,-55.192 -1.778,-3.742 -6.252,-5.333 -9.993,-3.555 -3.741,1.778 -5.333,6.252 -3.555,9.993 7.269,15.295 10.955,31.698 10.955,48.753 0,17.055 -3.686,33.458 -10.955,48.753 -1.778,3.743 -0.186,8.217 3.555,9.995 z"
           id="path845" />
      </g>
    </g>
  </g>
</svg>
